<svg width="155" height="150" viewBox="0 0 155 150" fill="none" xmlns="http://www.w3.org/2000/svg">
<path d="M151 83.9904C151 128.097 136 143.713 72.7391 143.713C48.6087 143.713 1 137.463 1 101.699C1 57.5926 63.2826 5.86523 96.8696 5.86523C138.291 5.86523 151 39.8843 151 83.9904Z" fill="#F6F6F9"/>
<g clip-path="url(#clip0_2873_95155)">
<path d="M62.9335 56.939C64.2754 55.5734 66.0677 55.1589 66.9366 56.013C67.8055 56.8671 67.4219 58.6662 66.0794 60.032C65.5506 60.585 64.8971 61.0033 64.1735 61.2519L58.4149 66.966L55.791 64.2066L61.7465 58.8664C61.9826 58.1384 62.3896 57.4774 62.9335 56.939V56.939Z" fill="#FFB6B6"/>
<path d="M44.5167 52.2224L50.5544 65.6168L60.1958 60.3979L63.6462 62.2292C63.6462 62.2292 55.7646 75.4058 50.3681 73.9058C44.9716 72.4059 35.3888 58.805 37.1154 54.6074C38.8419 50.4098 44.5167 52.2224 44.5167 52.2224Z" fill="#E6E6E6"/>
<path d="M72.5055 59.7833C71.1039 58.4791 70.6407 56.6988 71.4708 55.8069C72.3009 54.9151 74.1097 55.2494 75.5117 56.5542C76.0788 57.0678 76.5148 57.7097 76.783 58.4262L82.652 64.0269L79.9651 66.725L74.4646 60.9173C73.7304 60.7011 73.0586 60.3123 72.5055 59.7833Z" fill="#A0616A"/>
<path d="M102.068 60.6466L90.7398 72.7073C90.7398 72.7073 88.1959 75.2244 84.0105 71.5945C79.8251 67.9646 75.1719 62.0092 75.1719 62.0092L77.7824 59.1681L82.4064 63.2935C82.4064 63.2935 85.1518 64.3981 85.3426 65.1129C85.5335 65.8276 84.9999 66.1233 85.8576 65.8943C86.7153 65.6652 86.732 65.1543 86.7858 65.9292C86.8396 66.7041 86.3157 67.6097 87.3066 66.7325C88.2975 65.8553 88.5932 66.3889 88.5932 66.3889L95.8335 56.7982C95.8335 56.7982 100.512 53.0985 101.857 56.4148C103.202 59.7312 102.068 60.6466 102.068 60.6466V60.6466Z" fill="url(#paint0_linear_2873_95155)"/>
<path d="M41.87 141.491L46.2725 141.49L48.3668 124.509L41.8691 124.509L41.87 141.491Z" fill="#FFB6B6"/>
<path d="M56.9535 141.391C57.0906 141.622 57.1629 142.367 57.1629 142.635C57.1629 143.46 56.4939 144.129 55.6687 144.129H42.0347C41.4717 144.129 41.0153 143.673 41.0153 143.11V142.542C41.0153 142.542 40.3409 140.836 41.7295 138.734C41.7295 138.734 43.4553 140.38 46.0341 137.801L46.7946 136.424L52.2994 140.45L55.3507 140.825C56.0182 140.907 56.6101 140.812 56.9534 141.391H56.9535Z" fill="#2F2E41"/>
<path d="M92.6092 63.1266H103.52V47.0054H92.6092V63.1266Z" fill="#2F2E41"/>
<path d="M101.071 58.211L100.689 53.5936H95.6087L94.4824 58.4856L101.071 58.211Z" fill="#A0616A"/>
<path opacity="0.1" d="M101.071 58.211L100.689 53.5936H95.6087L94.4824 58.4856L101.071 58.211Z" fill="black"/>
<path d="M45.2009 53.082L45.2899 47.1441L41.6282 44.8615L37.6465 49.732L45.2009 53.082Z" fill="#FFB6B6"/>
<path opacity="0.1" d="M45.1997 53.082L45.4367 47.2921L41.627 44.8615L42.9213 52.0269L45.1997 53.082Z" fill="black"/>
<path d="M97.3482 55.0629C100.415 55.0629 102.901 52.5766 102.901 49.5096C102.901 46.4427 100.415 43.9564 97.3482 43.9564C94.2812 43.9564 91.7949 46.4427 91.7949 49.5096C91.7949 52.5766 94.2812 55.0629 97.3482 55.0629Z" fill="#A0616A"/>
<path d="M95.9473 43.6671C95.9473 43.6671 95.9473 41.3874 98.0642 41.8759C100.181 42.3644 100.832 43.1786 100.832 43.1786C100.832 43.1786 101.647 44.4813 102.949 44.6442C104.252 44.807 105.392 48.5523 105.229 49.3665C105.066 50.1807 104.252 52.2977 105.392 53.2747C106.532 54.2518 108.16 55.7173 107.672 57.1829C107.183 58.6485 105.718 62.3938 105.718 62.3938C105.718 62.3938 109.805 62.9913 109.471 65.5423C109.471 65.5423 107.509 64.0222 104.903 64.0222C102.298 64.0222 102.624 59.2953 102.624 59.2953C102.624 59.2953 102.461 56.3687 101.972 55.5545C101.484 54.7403 102.135 50.1807 99.6926 47.7381C97.25 45.2955 95.9473 43.6671 95.9473 43.6671V43.6671Z" fill="#2F2E41"/>
<path d="M96.5999 43.1788C96.5999 43.1788 93.5059 43.8302 92.3661 46.9241C91.2262 50.0181 91.8019 50.5938 91.8019 50.5938C91.8019 50.5938 91.5499 52.4569 90.1667 53.1102C88.7836 53.7634 89.9234 56.5317 89.9234 56.5317C89.9234 56.5317 89.5978 59.3 85.2011 60.2771C80.8044 61.2541 90.7146 68.7466 90.7146 68.7466C90.7146 68.7466 90.0021 65.2104 94.5616 65.0475C99.1212 64.8847 93.6688 56.5317 93.6688 56.5317L93.1803 51.158C93.1803 51.158 94.1573 44.97 97.0884 44.1558C100.02 43.3416 96.5999 43.1788 96.5999 43.1788L96.5999 43.1788Z" fill="#2F2E41"/>
<path d="M45.2115 48.9916C48.8081 48.9916 51.7237 46.076 51.7237 42.4794C51.7237 38.8828 48.8081 35.9671 45.2115 35.9671C41.6149 35.9671 38.6992 38.8828 38.6992 42.4794C38.6992 46.076 41.6149 48.9916 45.2115 48.9916Z" fill="#FFB6B6"/>
<path d="M54.0939 92.3465L48.0275 133.628H40.4163L41.4284 110.063L41.961 97.6731L40.4163 91.7754C40.4163 91.7754 39.712 90.4644 39.1187 88.8753C38.4499 87.082 37.9217 84.9321 38.7059 83.9126C38.9944 83.5368 39.7446 83.2586 40.764 83.0515C41.3869 82.9243 42.112 82.8251 42.8947 82.7482C47.3957 82.3028 53.798 82.581 53.798 82.581L53.9608 87.952L54.051 90.9512L54.0939 92.3465Z" fill="#2F2E41"/>
<path d="M16.8027 134.913L20.6811 136.997L30.5629 123.029L24.8389 119.954L16.8027 134.913Z" fill="#FFB6B6"/>
<path d="M30.1375 141.964C30.149 142.232 29.8601 142.923 29.733 143.159C29.3424 143.886 28.4365 144.159 27.7095 143.769L15.6992 137.316C15.2033 137.049 15.0172 136.431 15.2837 135.935L15.5524 135.435C15.5524 135.435 15.7656 133.613 17.9841 132.418C17.9841 132.418 18.7251 134.685 22.2174 133.634L23.5393 132.78L26.4831 138.932L28.9932 140.707C29.5424 141.096 30.1087 141.292 30.1375 141.964L30.1375 141.964Z" fill="#2F2E41"/>
<path d="M54.0508 90.9513L50.8311 97.4069L41.4281 110.064L25.9483 130.901L19.2441 127.3L37.6211 96.3578L39.0533 90.4305C39.0533 90.4305 39.0533 89.7898 39.1184 88.8754C39.2457 87.0658 39.6274 84.182 40.7638 83.0516C40.9177 82.8977 41.0849 82.7764 41.2669 82.695C41.6086 82.5411 42.1768 82.5781 42.8944 82.7483C45.8922 83.4644 51.4866 86.5405 53.9605 87.9521L54.0508 90.9513H54.0508Z" fill="#2F2E41"/>
<path d="M100.656 142.008L96.871 142.008L95.0703 127.407L100.657 127.408L100.656 142.008Z" fill="#A0616A"/>
<path d="M87.6879 141.922C87.57 142.121 87.5078 142.762 87.5078 142.993C87.5078 143.702 88.083 144.277 88.7926 144.277H100.515C100.999 144.277 101.392 143.885 101.392 143.401V142.913C101.392 142.913 101.972 141.446 100.778 139.638C100.778 139.638 99.2938 141.054 97.0764 138.836L96.4226 137.652L91.6895 141.113L89.066 141.436C88.492 141.507 87.9832 141.425 87.6879 141.922H87.6879H87.6879Z" fill="#2F2E41"/>
<path d="M115.569 137.547L112.07 138.991L104.836 126.181L110 124.05L115.569 137.547Z" fill="#A0616A"/>
<path d="M103.549 142.415C103.516 142.643 103.702 143.259 103.791 143.473C104.061 144.129 104.812 144.441 105.468 144.17L116.305 139.699C116.752 139.514 116.965 139.002 116.78 138.554L116.594 138.103C116.594 138.103 116.571 136.526 114.777 135.31C114.777 135.31 113.946 137.185 111.05 135.981L109.994 135.135L106.939 140.141L104.637 141.44C104.134 141.724 103.632 141.843 103.549 142.415L103.549 142.415H103.549Z" fill="#2F2E41"/>
<path d="M102.394 91.9232L100.85 97.821L101.261 107.391L101.943 123.287L101.962 123.735L102.039 125.522L102.394 133.776H94.7832L91.3949 110.719L88.7168 92.4943L88.9979 83.2141L89.0127 82.7288C89.0127 82.7288 102.625 82.137 104.105 84.0605C105.584 85.984 102.394 91.9232 102.394 91.9232H102.394Z" fill="#2F2E41"/>
<path d="M112.984 127.842L111.694 128.51L106.922 130.979L106.224 131.34L102.039 125.522L91.3949 110.719L88.7168 92.4943L88.9979 83.2141C90.2023 82.8309 91.1656 82.674 91.6538 82.9019C93.8526 83.9302 93.7475 90.6714 93.7475 90.6714L95.0866 96.6195L101.261 107.391L112.984 127.842Z" fill="#2F2E41"/>
<path d="M125.531 144.316C125.531 144.411 125.453 144.489 125.357 144.489H5V144.142H125.357C125.453 144.142 125.531 144.22 125.531 144.316Z" fill="#E6E6E6"/>
<path d="M38.4828 48.4758L45.881 52.0269C45.881 52.0269 53.723 75.2569 53.723 76.4406C53.723 77.6243 55.9424 78.3642 54.6107 79.6958C53.2791 81.0275 57.0893 82.1553 55.0362 83.2189C52.9831 84.2826 40.1757 90.1009 38.7515 89.5763C34.8237 88.1292 38.918 82.8118 38.918 82.8118C38.918 82.8118 35.9675 80.4356 36.4114 79.2519C36.8553 78.0682 33.748 55.43 33.748 55.43L38.4828 48.4758V48.4758Z" fill="#E6E6E6"/>
<path d="M44.8143 44.0393L45.6519 45.7145C45.6519 45.7145 46.4896 42.6991 47.8297 42.029C49.1699 41.359 49.3374 40.3538 49.3374 40.3538C49.3374 40.3538 51.0127 42.5316 52.1853 42.029C53.358 41.5265 53.8605 41.1914 52.5203 39.1812C51.1802 37.1709 51.5152 38.176 51.5152 38.176C51.5152 38.176 50.3426 36.5008 50.5101 37.0034C50.6776 37.5059 49.5049 35.6632 49.5049 36.1658C49.5049 36.6683 48.6673 35.1606 48.6673 35.6632C48.6673 36.1658 45.1494 34.4905 45.6519 35.1606C46.1545 35.8307 42.6365 33.8205 40.9613 36.5008C39.2861 39.1812 36.9632 38.6855 37.7896 40.3573C38.616 42.029 38.281 46.5521 38.281 46.5521H40.5913C40.5913 46.5521 42.9716 42.029 44.8143 44.0393V44.0393Z" fill="#2F2E41"/>
<path d="M94.1168 58.2413L94.2524 58.203L100.923 56.3177L106.25 63.5679L102.699 78.6601L104.03 84.7265C104.03 84.7265 93.2291 81.9152 88.9382 84.2826C88.9382 84.2826 88.6422 82.9335 88.9382 82.2764C89.2341 81.6193 89.678 78.8849 89.2341 77.6628C88.7902 76.4406 90.1219 70.6701 90.1219 70.6701C90.1219 70.6701 89.678 66.8231 91.6015 64.8996C93.525 62.9761 94.1168 58.2413 94.1168 58.2413Z" fill="url(#paint1_linear_2873_95155)"/>
<path d="M88.0587 85.4931L64.6183 73.844C64.5017 73.786 64.3998 73.7062 64.3154 73.6068L60.658 69.2963C60.4154 69.0104 60.3629 68.607 60.5242 68.2685L67.3823 53.88C67.5025 53.6279 67.7261 53.4417 67.996 53.3692C68.266 53.2968 68.5528 53.3459 68.7832 53.5039L85.3141 64.8433C85.6535 65.076 85.8051 65.4981 85.6914 65.8935L82.3352 77.5733C82.2434 77.8928 82.3604 78.2414 82.6263 78.4408L89.2658 83.4204C89.6233 83.6886 89.7469 84.1777 89.5596 84.5835L89.3496 85.0385C89.2406 85.2746 89.0455 85.4522 88.8003 85.5386C88.6963 85.5753 88.5891 85.5935 88.4823 85.5935C88.3372 85.5934 88.1929 85.5598 88.0587 85.4931Z" fill="url(#paint2_linear_2873_95155)"/>
<path d="M87.8725 82.6579L81.3473 77.2292C81.2911 77.1818 81.2467 77.1241 81.2157 77.0605C81.1565 76.9406 81.1446 76.7971 81.189 76.6654L84.9073 65.7858C85.0035 65.5046 84.8999 65.1909 84.6543 65.0223L69.1627 54.4163C69.0043 54.3068 68.8061 54.2728 68.6196 54.3216C68.4317 54.3705 68.2763 54.4977 68.1905 54.6708L61.6595 67.9327C61.5604 68.1324 61.5677 68.3618 61.6772 68.5527C61.6906 68.5793 61.7068 68.6044 61.7261 68.6281L65.0108 72.9634C65.0745 73.0463 65.1573 73.1143 65.2505 73.1602L87.1578 83.7676C87.2496 83.812 87.3487 83.8342 87.4478 83.8342C87.6195 83.8342 87.7911 83.7676 87.9183 83.6389C87.9331 83.6226 87.9479 83.6078 87.9627 83.5901C88.0663 83.4643 88.1196 83.303 88.1122 83.1388C88.1033 82.9523 88.016 82.7777 87.8725 82.6579Z" fill="#F2F2F2"/>
<path d="M64.2279 67.1188C64.2821 67.1188 64.3342 67.089 64.3602 67.0374L69.6705 56.4874C69.7073 56.4144 69.6779 56.3254 69.6049 56.2887C69.5317 56.2518 69.443 56.2814 69.4062 56.3543L64.0959 66.9043C64.0592 66.9774 64.0886 67.0663 64.1615 67.103C64.1829 67.1138 64.2056 67.1188 64.2279 67.1188Z" fill="#59AA6F"/>
<path d="M67.0404 68.8946C67.0946 68.8946 67.1467 68.8648 67.1727 68.8132L72.483 58.2632C72.5198 58.1902 72.4904 58.1012 72.4174 58.0645C72.3442 58.0275 72.2554 58.0572 72.2187 58.1301L66.9084 68.6801C66.8717 68.7531 66.9011 68.8421 66.974 68.8788C66.9954 68.8895 67.0181 68.8946 67.0404 68.8946Z" fill="#59AA6F"/>
<path d="M69.4076 70.3741C69.4618 70.3741 69.5139 70.3444 69.5399 70.2927L74.8502 59.7427C74.887 59.6697 74.8576 59.5808 74.7846 59.544C74.7114 59.5071 74.6227 59.5367 74.5859 59.6097L69.2756 70.1596C69.2388 70.2327 69.2682 70.3216 69.3412 70.3583C69.3626 70.3691 69.3853 70.3741 69.4076 70.3741V70.3741Z" fill="#59AA6F"/>
<path d="M61.0264 68.9449C62.8625 68.4024 64.6306 68.9101 64.9756 70.0786C65.3207 71.2472 64.112 72.6338 62.2752 73.1762C61.5444 73.4029 60.77 73.4514 60.0167 73.3174L52.2082 75.5175L51.2539 71.8312L59.053 70.0537C59.6128 69.5318 60.2895 69.1516 61.0264 68.9449Z" fill="#FFB6B6"/>
<path d="M47.2154 55.8808L45.9915 70.522L56.9541 70.6399L59.0817 73.916C59.0817 73.916 45.7944 81.6096 41.8046 77.6784C37.8149 73.7472 36.0396 57.2045 39.5869 54.3729C43.1341 51.5413 47.2154 55.8808 47.2154 55.8808Z" fill="#E6E6E6"/>
<path d="M83.1268 82.3162C81.2177 82.1724 79.7444 81.0708 79.8361 79.8559C79.9278 78.6409 81.5496 77.7729 83.4594 77.917C84.223 77.9641 84.9643 78.1934 85.6212 78.5857L93.7024 79.2971L93.2878 83.0823L85.3651 81.9791C84.6566 82.2686 83.8891 82.3842 83.1268 82.3162Z" fill="#A0616A"/>
<path d="M106.76 64.5349L105.44 81.0288C105.44 81.0288 105.024 84.5833 99.4882 84.3605C93.9525 84.1376 86.5996 82.3902 86.5996 82.3902L86.8653 78.541L93.053 78.8771C93.053 78.8771 95.8872 78.0262 96.4825 78.4654C97.0779 78.9046 96.8456 79.4687 97.3726 78.7543C97.8997 78.04 97.5938 77.6304 98.1195 78.2022C98.6453 78.7739 98.8014 79.8085 99.0279 78.5046C99.2544 77.2007 99.8185 77.433 99.8185 77.433L99.4873 65.4207C99.4873 65.4207 100.833 59.6098 103.954 61.3609C107.075 63.112 106.76 64.5349 106.76 64.5349Z" fill="url(#paint3_linear_2873_95155)"/>
</g>
<defs>
<linearGradient id="paint0_linear_2873_95155" x1="88.8434" y1="55.0341" x2="88.8434" y2="73.5571" gradientUnits="userSpaceOnUse">
<stop stop-color="#1C038F"/>
<stop offset="1" stop-color="#75ecac"/>
</linearGradient>
<linearGradient id="paint1_linear_2873_95155" x1="97.5282" y1="56.3177" x2="97.5282" y2="84.7265" gradientUnits="userSpaceOnUse">
<stop stop-color="#75ecac"/>
<stop offset="1" stop-color="#75ecac"/>
</linearGradient>
<linearGradient id="paint2_linear_2873_95155" x1="60.4276" y1="57.4521" x2="96.5607" y2="77.5931" gradientUnits="userSpaceOnUse">
<stop stop-color="#59AA6F"/>
<stop offset="1" stop-color="#75ecac"/>
</linearGradient>
<linearGradient id="paint3_linear_2873_95155" x1="96.6844" y1="61.032" x2="96.6844" y2="84.3705" gradientUnits="userSpaceOnUse">
<stop stop-color="#75ecac"/>
<stop offset="1" stop-color="#75ecac"/>
</linearGradient>
<clipPath id="clip0_2873_95155">
<rect width="150" height="109.489" fill="white" transform="translate(5 35)"/>
</clipPath>
</defs>
</svg>
