<svg width="193" height="186" viewBox="0 0 193 186" fill="none" xmlns="http://www.w3.org/2000/svg">
<path d="M190.24 104.148C190.24 158.84 171.64 178.204 93.1968 178.204C63.275 178.204 4.24023 170.454 4.24023 126.107C4.24023 71.4149 81.4707 7.27295 123.118 7.27295C174.481 7.27295 190.24 49.4565 190.24 104.148Z" fill="#F6F6F9"/>
<g clip-path="url(#clip0_4180_23533)">
<path d="M179.717 159.443L180.045 152.025C183.47 150.187 187.29 149.216 191.173 149.196C185.829 153.584 186.497 162.042 182.873 167.943C181.729 169.775 180.189 171.324 178.367 172.477C176.545 173.63 174.489 174.356 172.349 174.602L167.877 177.352C167.263 173.916 167.398 170.388 168.273 167.01C169.148 163.632 170.742 160.484 172.945 157.785C174.196 156.282 175.63 154.944 177.214 153.802C178.286 156.638 179.717 159.443 179.717 159.443Z" fill="#DDDDE5"/>
<path d="M111.893 179.198C109.614 179.036 109.02 179.487 105.574 179.198H99.2549L100.077 164.014L110.025 168.017L159.459 169.235L159.43 169.32C159.408 169.384 157.213 175.831 158.928 178.272L159 178.373L158.861 178.375L113.512 178.792C113.017 178.797 112.384 179.234 111.893 179.198Z" fill="#F2F2F2"/>
<path d="M114.457 179.397C110.056 179.083 105.499 180.8 101.696 178.861L98.6559 179.046L98.6473 179.02C98.6237 178.95 97.1876 167.603 100.091 163.204L100.219 163.01L100.318 164.052L99.3614 178.187L101.483 177.476C106.635 179.911 112.762 178.303 118.658 178.28L158.787 178.131C159.627 178.129 160.328 178.705 160.35 179.417L160.352 179.487L116.88 179.484C116.07 179.483 115.262 179.455 114.457 179.397Z" fill="#DDDDE5"/>
<path d="M156.672 172.298L111.513 171.396L111.467 171.379L100.797 167.364L100.999 166.824L111.622 170.822L156.683 171.721L156.672 172.298Z" fill="#E6E6E6"/>
<path d="M156.431 174.726L111.272 173.824L111.226 173.807L100.557 169.792L100.758 169.252L111.382 173.25L156.442 174.149L156.431 174.726Z" fill="#E6E6E6"/>
<path d="M156.19 177.154L111.031 176.253L110.985 176.235L100.315 172.22L100.517 171.68L111.141 175.678L156.201 176.577L156.19 177.154Z" fill="#E6E6E6"/>
<path d="M114.769 169.392C110.582 169.108 106.499 167.951 102.782 165.996L99.6519 164.329L99.7336 163.505C99.7564 163.384 99.823 163.276 99.9205 163.201C100.018 163.126 100.139 163.09 100.262 163.1L100.538 163.104L142.652 163.726C145.409 163.76 148.14 164.258 150.733 165.199L159.909 168.544L159.904 168.593C159.827 169.369 159.047 169.969 158.129 169.958L116.645 169.47C116.017 169.463 115.392 169.437 114.769 169.392Z" fill="#E6E6EE"/>
<path d="M159.82 168.723L159.811 168.722L109.308 167.56L109.273 167.544L100.167 163.31L100.26 163.168L100.537 163.171L109.392 167.292L159.427 168.442L159.828 168.451L159.82 168.723Z" fill="#CCCCCC"/>
<path d="M120.559 163.468L119.918 163.459L105.444 163.244L104.758 163.234C108.065 166.769 115.377 167.654 126.095 166.284L120.559 163.468Z" fill="#DDDDE5"/>
<path d="M161.252 78.9091L162.135 80.9715L160.692 88.2958L145.97 86.2406L146.088 77.3093L146.383 75.3533L161.252 78.9091Z" fill="#FFB6B6"/>
<path d="M168.858 173.834H165.61L164.064 161.255H168.858V173.834Z" fill="#FFB6B6"/>
<path d="M159.197 178.092C159.197 178.461 159.343 178.815 159.604 179.076C159.864 179.338 160.216 179.485 160.584 179.485H166.763L167.828 177.277L168.242 179.485H170.571L169.916 171.599L168.858 171.537L165.301 171.324L164.728 171.288V173.522L159.796 176.943C159.611 177.072 159.46 177.243 159.356 177.443C159.251 177.643 159.197 177.866 159.197 178.092Z" fill="#2F2E41"/>
<path d="M138.838 159.413H135.59L133.68 140.894L139.782 140.528L138.838 159.413Z" fill="#FFB6B6"/>
<path d="M129.177 163.671C129.177 164.04 129.323 164.395 129.584 164.656C129.844 164.917 130.196 165.064 130.564 165.064H136.743L137.808 162.856L138.222 165.064H140.551L139.896 157.178L138.952 157.123L135.333 156.904L134.708 156.868V159.102L129.776 162.523C129.591 162.651 129.44 162.823 129.336 163.023C129.231 163.223 129.177 163.445 129.177 163.671Z" fill="#2F2E41"/>
<path d="M170.236 162.986H170.224L169.599 142.532C170.003 141.749 170.208 140.878 170.196 139.996C170.184 139.115 169.955 138.25 169.529 137.478L169.44 137.316L169.672 136.236C169.969 134.85 169.833 133.404 169.28 132.099L168.698 113.019C170.779 99.4713 160.858 90.6359 160.858 90.6359L161.77 83.535L145.723 83.9013L145.996 90.6359L142.805 101.644C141.126 118.072 129.825 128.398 131.542 144.107C131.546 144.153 131.539 144.198 131.523 144.24C131.348 144.772 131.287 145.335 131.343 145.893C131.398 146.45 131.569 146.99 131.845 147.477C131.917 147.601 131.966 147.737 131.991 147.878C132.344 150.632 132.391 147.148 132.86 149.878L132.768 149.924C132.44 150.038 132.299 150.495 132.453 150.945C132.608 151.395 133 151.668 133.328 151.554L141.907 151.646C142.235 151.532 142.376 151.075 142.222 150.625C142.067 150.175 141.675 149.903 141.347 150.017L140.813 150.288L141.706 147.354L142.019 147.061C142.169 146.92 142.285 146.747 142.359 146.555C142.433 146.363 142.463 146.157 142.446 145.951C142.43 145.746 142.367 145.547 142.263 145.37C142.159 145.192 142.016 145.04 141.846 144.926L142.735 140.159L142.609 136.554L142.869 132.464L154.125 116.087L158.679 138.709L163.331 163.214C163.222 163.312 163.14 163.437 163.094 163.576C163.047 163.715 163.037 163.864 163.064 164.008C163.107 164.209 163.218 164.389 163.378 164.518C163.539 164.646 163.739 164.714 163.944 164.71H170.259C170.391 164.71 170.522 164.679 170.64 164.62C170.759 164.561 170.862 164.475 170.943 164.369C171.023 164.263 171.078 164.14 171.103 164.01C171.128 163.879 171.122 163.745 171.087 163.617C171.034 163.432 170.922 163.271 170.768 163.157C170.614 163.043 170.427 162.983 170.236 162.986Z" fill="url(#paint0_linear_4180_23533)"/>
<path fill-rule="evenodd" clip-rule="evenodd" d="M165.337 37.9381C165.166 38.1951 164.993 38.4545 164.925 38.7316C164.864 38.9772 164.871 39.25 164.877 39.5149C164.888 40.0058 164.898 40.4697 164.483 40.6835C164.251 40.8028 164.003 40.8048 163.757 40.7388C164.307 41.7048 164.622 42.8215 164.622 44.1056C164.622 45.4115 164.304 46.6975 163.693 47.8508C163.083 49.0041 162.201 49.9894 161.123 50.7202C160.045 51.4511 158.805 51.905 157.512 52.0423C156.219 52.1795 154.912 51.9959 153.706 51.5075C152.499 51.0191 151.431 50.2409 150.594 49.2411C149.758 48.2414 149.178 47.0507 148.907 45.7735C148.635 44.4964 148.68 43.1719 149.038 41.9162C149.395 40.6606 150.054 39.5123 150.957 38.572L150.995 38.5338C151.058 38.4668 151.122 38.3997 151.189 38.3359L151.19 38.3357L151.191 38.335L151.191 38.3339L151.192 38.3327C151.283 38.2659 151.367 38.19 151.443 38.1061C152.515 36.6012 153.731 35.3393 156.677 36.1276C157.358 36.3101 158.026 36.5261 158.667 36.7785C158.466 36.0252 158.384 35.2446 158.424 34.4652C158.513 33.6421 158.929 32.8069 159.667 32.4379C160.493 32.0246 161.534 32.2987 162.245 32.89C162.568 33.1581 162.737 33.5761 162.904 33.9887C163.105 34.486 163.303 34.9754 163.762 35.1849C166.377 36.3777 165.865 37.1462 165.337 37.9381Z" fill="url(#paint1_linear_4180_23533)"/>
<path d="M120.977 40.6901C120.959 41.1169 121.035 41.5425 121.198 41.9369C121.362 42.3313 121.609 42.6849 121.924 42.9728C122.238 43.2608 122.611 43.4759 123.017 43.6033C123.424 43.7306 123.853 43.767 124.274 43.7098L144.764 60.5954L147.893 55.0716L126.769 40.2106C126.626 39.5057 126.231 38.8778 125.658 38.4459C125.085 38.014 124.375 37.8081 123.661 37.8672C122.947 37.9263 122.28 38.2463 121.785 38.7666C121.29 39.2869 121.003 39.9713 120.977 40.6901V40.6901Z" fill="#FFB6B6"/>
<path d="M154.718 52.6411C158.398 52.6411 161.38 49.6459 161.38 45.9512C161.38 42.2565 158.398 39.2614 154.718 39.2614C151.039 39.2614 148.056 42.2565 148.056 45.9512C148.056 49.6459 151.039 52.6411 154.718 52.6411Z" fill="#FFB7B7"/>
<path fill-rule="evenodd" clip-rule="evenodd" d="M135.949 53.7022C135.21 57.8667 141.44 62.2264 146.256 64.0757L145.985 64.7076C144.598 65.7085 143.771 66.9939 143.533 68.5246C143.025 71.7758 145.292 75.0302 145.562 75.4031L145.63 79.135L145.562 79.2266C145.194 79.7197 145.006 80.325 145.03 80.9408C145.054 81.5566 145.287 82.1454 145.692 82.6086C145.696 82.8048 145.725 82.9945 146.002 83.6977C146.038 83.7659 146.08 83.8305 146.129 83.8907C146.133 83.8983 146.138 83.9057 146.143 83.913C146.148 83.9198 146.153 83.9266 146.158 83.9332C146.45 84.312 146.855 84.5861 147.314 84.7149L159.51 88.1329L161.122 88.5843L161.405 88.6628L161.562 86.4517C161.924 86.1499 162.167 85.7277 162.247 85.2616C162.326 84.7954 162.237 84.3161 161.995 83.9103L161.77 83.5375L163.079 80.0018L163.207 79.6518L166.545 70.6277L166.548 70.0259L166.555 69.4045L166.588 65.0674C166.589 63.7005 166.275 62.3518 165.67 61.1272C165.066 59.9026 164.187 58.8353 163.102 58.0091C162.115 57.2512 160.976 56.7157 159.764 56.4391L159.738 56.4358L158.418 54.6533L153.067 55.1897L152.624 56.1022L144.573 51.4578L140.217 49.7195C140.362 49.0632 140.345 47.9202 138.644 47.8048L133.223 53.0457C133.54 53.4434 133.981 53.7237 134.474 53.8426C134.967 53.9614 135.486 53.912 135.949 53.7022Z" fill="url(#paint2_linear_4180_23533)"/>
<path d="M161.691 47.705C161.63 47.6954 161.57 47.6826 161.509 47.6731C160.47 47.488 159.431 47.3061 158.395 47.1178L158.3 44.7596L157.044 46.8721C154.181 47.8262 151.502 47.2869 148.982 46.0966C148.151 45.7004 147.344 45.2539 146.567 44.7596C146.311 40.7712 147.916 38.2179 150.905 38.4857C151.014 38.4955 151.092 38.3836 151.187 38.3357C151.188 38.3357 151.188 38.3356 151.189 38.3354C151.189 38.3353 151.189 38.335 151.19 38.3348C151.19 38.3345 151.19 38.3341 151.19 38.3337C151.19 38.3333 151.191 38.3329 151.191 38.3325C151.353 38.2559 151.518 38.1825 151.683 38.1155C152.977 37.6078 154.388 37.4792 155.751 37.7447C157.115 38.0102 158.376 38.6589 159.387 39.6153C161.42 41.5652 162.336 44.7851 161.691 47.705Z" fill="url(#paint3_linear_4180_23533)"/>
<path d="M161.509 47.6731C161.509 47.6731 159.536 40.2759 151.076 38.5686C151.066 38.5655 151.035 38.5527 150.993 38.5336C150.968 38.5176 150.936 38.5016 150.904 38.4857C151 38.4314 151.092 38.3836 151.187 38.3357C151.188 38.3357 151.188 38.3356 151.188 38.3355C151.189 38.3353 151.189 38.3351 151.189 38.3348C151.19 38.3345 151.19 38.3341 151.19 38.3337C151.19 38.3333 151.19 38.3329 151.19 38.3325C151.273 38.2559 151.356 38.1793 151.441 38.1059L151.683 38.1155C151.683 38.1155 160.171 36.7657 161.509 47.6731Z" fill="url(#paint4_linear_4180_23533)"/>
<path d="M164.764 94.303C164.607 94.4374 164.417 94.526 164.213 94.5591C164.01 94.5922 163.801 94.5684 163.611 94.4904C163.231 94.3286 162.893 94.0808 162.625 93.7664C161.529 92.6121 160.746 91.1951 160.351 89.6505L160.716 88.9977C160.573 88.1926 160.708 87.3624 161.099 86.645C161.49 85.9276 162.113 85.366 162.866 85.0535C163.294 84.8711 163.769 84.8297 164.222 84.9351C164.447 84.9911 164.653 85.1071 164.817 85.2707C164.982 85.4344 165.099 85.6396 165.157 85.8647C165.298 86.5631 164.718 87.1936 164.132 87.5946C163.11 88.2912 161.928 88.7157 160.698 88.8284C162.203 89.6801 163.504 90.8524 164.509 92.2629C164.741 92.5571 164.913 92.895 165.013 93.2568C165.061 93.4383 165.064 93.6289 165.02 93.8115C164.977 93.9942 164.889 94.163 164.764 94.303Z" fill="#2F2E41"/>
<path d="M80.553 179.722H192.362C192.457 179.722 192.548 179.684 192.615 179.617C192.682 179.549 192.72 179.458 192.72 179.363C192.72 179.267 192.682 179.176 192.615 179.108C192.548 179.041 192.457 179.003 192.362 179.003H80.553C80.458 179.003 80.3669 179.041 80.2997 179.108C80.2326 179.176 80.1948 179.267 80.1948 179.363C80.1948 179.458 80.2326 179.549 80.2997 179.617C80.3669 179.684 80.458 179.722 80.553 179.722Z" fill="#CCCCCC"/>
<path d="M110.247 87.2602V87.4481C109.844 86.9743 109.433 86.5045 109.027 86.0347C108.856 85.8386 108.685 85.6425 108.514 85.4465C107.79 84.6213 107.062 83.7988 106.329 82.9791C105.593 82.162 104.857 81.345 104.112 80.5321C103.933 80.336 103.754 80.1399 103.571 79.9438C103.425 79.7791 103.265 79.6261 103.095 79.4863C102.923 79.3427 102.726 79.2332 102.513 79.1635C102.269 79.0955 102.011 79.0927 101.765 79.1554C101.484 79.2208 101.216 79.3229 100.943 79.4087C100.662 79.5026 100.386 79.5925 100.105 79.6824C99.5435 79.8662 98.9862 80.0501 98.4247 80.2339C98.4179 80.2366 98.4107 80.238 98.4034 80.238C98.3961 80.2379 98.3889 80.2364 98.3821 80.2336C98.3754 80.2307 98.3693 80.2266 98.3642 80.2214C98.3591 80.2161 98.355 80.21 98.3523 80.2032L98.3515 80.2012C98.3483 80.1934 98.3468 80.1851 98.3472 80.1767C98.3476 80.1684 98.3498 80.1602 98.3537 80.1528C98.3576 80.1454 98.3631 80.1389 98.3697 80.1339C98.3764 80.1288 98.3841 80.1253 98.3922 80.1236C98.5306 80.0787 98.6729 80.0337 98.8153 79.9887C99.3808 79.8008 99.9421 79.617 100.508 79.4332C100.788 79.3392 101.069 79.2494 101.35 79.1595C101.61 79.0602 101.885 79.005 102.163 78.9961C102.618 79.0289 103.044 79.2298 103.36 79.5598C103.534 79.7233 103.693 79.8948 103.852 80.0705C104.039 80.2747 104.226 80.479 104.413 80.6832C105.166 81.5085 105.913 82.3364 106.655 83.167C107.399 84.0003 108.137 84.8351 108.868 85.6712C108.921 85.7325 108.974 85.7937 109.026 85.855C109.437 86.3206 109.84 86.7905 110.247 87.2602Z" fill="white"/>
<path d="M103.032 80.239C102.878 80.0401 102.673 79.8873 102.439 79.7969L102.208 79.805C104.024 82.6422 106.403 85.0729 109.196 86.9454C107.141 84.7099 105.086 82.4744 103.032 80.239Z" fill="white"/>
<path d="M140.925 109.723L131.708 60.1713C131.551 59.3544 131.121 58.6156 130.491 58.076C129.86 57.5363 129.065 57.2279 128.237 57.2012C128.163 57.1995 128.088 57.1995 128.014 57.2012L121.735 57.4273L121.06 57.4523L117.926 57.5654L117.251 57.5887L115.235 57.6618L74.5942 59.1269C74.5329 59.1302 74.47 59.1302 74.4087 59.1286L65.3018 58.9373L61.9316 58.8675L61.8239 58.8658L59.3365 58.8126L37.6613 58.3603L31.9146 58.2389L29.081 58.1807L28.402 58.1657L25.171 58.0992L24.4936 58.0842L21.188 58.016L20.5107 58.0011L16.8788 57.9246L16.3091 57.9129L13.0698 57.8447L12.5581 57.8348H12.4835C11.6236 57.8383 10.7925 58.147 10.1373 58.7063C9.48208 59.2657 9.0449 60.0396 8.90303 60.8913L0.567836 112.311C0.483193 112.832 0.512335 113.365 0.653236 113.873C0.794137 114.382 1.04342 114.853 1.38384 115.256C1.72426 115.658 2.14767 115.981 2.62473 116.202C3.10179 116.424 3.6211 116.538 4.14668 116.538H52.0148C52.7194 116.54 53.405 116.767 53.9723 117.187L54.8799 117.862C55.5054 118.324 56.2611 118.575 57.0378 118.577C66.2829 116.127 76.0029 116.127 85.2479 118.577C85.7246 118.578 86.1968 118.485 86.6371 118.301C87.0774 118.118 87.4772 117.849 87.8132 117.509C88.3879 116.933 89.1548 116.59 89.9662 116.547L137.549 114.029C138.065 114.002 138.57 113.864 139.029 113.626C139.487 113.387 139.89 113.052 140.21 112.645C140.529 112.237 140.758 111.765 140.882 111.262C141.005 110.758 141.02 110.233 140.925 109.723V109.723Z" fill="#DDDDE5"/>
<path d="M127.885 101.996C127.823 103.675 127.101 105.262 125.876 106.406C124.65 107.55 123.023 108.159 121.35 108.099C118.587 108.001 115.29 107.952 111.711 108.027C100.024 108.278 85.3416 109.893 76.5096 115.702C75.3996 116.433 74.0879 116.795 72.7614 116.734C72.6638 116.728 72.569 116.723 72.4713 116.714C71.0961 116.588 69.8003 116.011 68.7834 115.073C63.918 110.602 52.7595 105.189 27.2171 104.808C27.1108 104.808 27.0074 104.802 26.904 104.797C26.0767 104.744 25.2678 104.529 24.5235 104.163C23.7792 103.796 23.1141 103.286 22.5662 102.662C22.0183 102.037 21.5983 101.31 21.3304 100.522C21.0624 99.7346 20.9517 98.9016 21.0045 98.0709L23.5148 58.0652L23.8911 52.0691L24.5517 41.5796C24.6183 40.5232 25.0829 39.5319 25.8511 38.8071C26.6193 38.0823 27.6335 37.6784 28.6876 37.6774H28.7135L43.9304 37.7668C50.3411 38.0581 55.6508 38.8781 59.8595 40.2269C61.2972 40.6746 62.6958 41.2399 64.0415 41.917C65.8794 42.8118 67.5306 44.05 68.907 45.5655C69.7643 46.5336 70.9336 47.1676 72.21 47.3565C72.4079 47.3862 72.6074 47.4045 72.8074 47.4113C73.9845 47.4602 75.1459 47.1264 76.119 46.4595C86.0597 39.7713 106.317 39.2636 117.504 39.5521C119.069 39.5887 120.564 40.2088 121.698 41.2917C122.832 42.3745 123.524 43.8425 123.639 45.4097L124.093 51.377L124.544 57.3269L127.146 91.7143L127.87 101.281C127.888 101.519 127.893 101.758 127.885 101.996Z" fill="#F2F2F2"/>
<path d="M31.0031 51.7547C40.1731 48.8168 50.4036 49.5946 59.091 53.7334C61.5697 54.9082 63.9107 56.3561 66.0708 58.0503C66.6819 58.5319 67.5514 57.6705 66.9338 57.1837C58.9546 50.9691 48.9289 48.0169 38.8711 48.9202C36.0885 49.1702 33.3414 49.7244 30.6786 50.5729C29.9332 50.8117 30.2518 51.9954 31.0031 51.7547H31.0031Z" fill="#3F3D56"/>
<path d="M81.4629 58.5258C89.9887 54.0259 100.198 53.0446 109.468 55.599C112.111 56.3254 114.665 57.3451 117.083 58.6392C117.775 59.0103 118.393 57.9528 117.699 57.581C108.864 52.8472 98.2585 51.7575 88.6107 54.3963C85.9193 55.1337 83.316 56.1636 80.8469 57.4676C80.1514 57.8347 80.7676 58.8928 81.4629 58.5258Z" fill="#3F3D56"/>
<path d="M81.4629 66.696C89.9887 62.1961 100.198 61.2148 109.468 63.7691C112.111 64.4956 114.665 65.5153 117.083 66.8094C117.775 67.1805 118.393 66.123 117.699 65.7511C108.864 61.0173 98.2585 59.9276 88.6107 62.5664C85.9193 63.3039 83.316 64.3337 80.8469 65.6377C80.1514 66.0048 80.7675 67.0629 81.4629 66.696L81.4629 66.696Z" fill="#3F3D56"/>
<path d="M117.997 74.4279C118.004 74.3227 117.978 74.218 117.925 74.1274C117.871 74.0368 117.792 73.9646 117.697 73.9199C110.619 70.1985 102.594 68.6892 94.6552 69.5861C94.6054 69.5901 94.5596 69.5981 94.5058 69.6021H94.5038C94.455 69.6065 94.4064 69.6139 94.3584 69.6241C89.6364 70.1698 85.0556 71.5875 80.8471 73.806C80.7554 73.8608 80.6794 73.9387 80.6267 74.032C80.5739 74.1253 80.5463 74.2307 80.5464 74.3379V89.5793C80.5479 89.6731 80.5706 89.7653 80.6129 89.849C80.6551 89.9326 80.7158 90.0055 80.7902 90.0622C80.8647 90.1188 80.951 90.1577 81.0426 90.1759C81.1343 90.1942 81.2288 90.1912 81.3191 90.1673C81.5064 90.1133 81.6936 90.0613 81.8848 90.0113C86.1394 88.8549 90.5071 88.1688 94.9101 87.9654C95.0037 87.9614 95.0973 87.9574 95.1949 87.9534C98.7811 87.7987 102.374 87.9284 105.94 88.3413C106.015 88.3456 106.089 88.3536 106.163 88.3653C106.346 88.3853 106.533 88.4073 106.717 88.4313C106.79 88.4393 106.86 88.4473 106.928 88.4593C107.641 88.5493 108.348 88.6513 109.057 88.7613C110.08 88.9253 111.104 89.108 112.128 89.3093C112.192 89.3213 112.257 89.3373 112.323 89.3493C113.966 89.6773 115.601 90.0573 117.228 90.4772C117.319 90.5007 117.414 90.5032 117.506 90.4846C117.597 90.466 117.684 90.4267 117.758 90.3697C117.832 90.3127 117.893 90.2395 117.935 90.1556C117.977 90.0716 118 89.9792 118.001 89.8853V74.4519C118.002 74.4437 118 74.4355 117.997 74.4279Z" fill="#3F3D56"/>
<path d="M95.6118 70.4171C95.1647 70.1972 94.6522 70.152 94.1737 70.2903C93.9624 70.3699 93.7689 70.4908 93.6045 70.6461C93.44 70.8013 93.308 70.9879 93.2159 71.1948C93.0501 71.5916 92.9439 72.0109 92.9006 72.4391C92.8754 72.6075 92.8738 72.82 93.0423 72.8986C93.1035 72.9209 93.1696 72.926 93.2335 72.9133C93.2973 72.9006 93.3565 72.8706 93.4046 72.8266C93.4917 72.7404 93.5634 72.6399 93.6167 72.5294C93.9094 72.0721 94.3122 71.6963 94.7878 71.4367C95.2634 71.177 95.7964 71.0419 96.3378 71.0439L96.7883 71.2242C96.4338 70.9036 96.0381 70.6321 95.6118 70.4171Z" fill="#FF6582"/>
<path d="M100.489 73.9301C100.139 73.4132 99.7246 72.8613 99.0757 72.6925C98.3243 72.4971 97.5524 72.8854 96.8976 73.2685C94.9505 74.4072 93.065 75.6489 91.249 76.9884L91.251 77.0085L95.466 76.7486C96.4812 76.6861 97.5312 76.6149 98.4283 76.1857C98.7504 75.9829 99.1105 75.8483 99.4863 75.7901C99.7194 75.8028 99.9477 75.8617 100.158 75.9634C100.368 76.0652 100.557 76.2078 100.712 76.383C102.654 78.2319 103.216 81.0593 105.396 82.6837C104.009 79.632 102.367 76.7037 100.489 73.9301Z" fill="white"/>
<path d="M95.1955 87.953C95.098 87.9571 95.0044 87.9612 94.9108 87.9653C94.2314 87.7202 93.5358 87.5037 92.832 87.3157C92.3763 87.1932 91.9126 87.0829 91.4487 86.989C90.9239 86.8746 90.3951 86.7847 89.8662 86.7071C88.8593 86.56 87.8445 86.4741 86.8273 86.4497C86.8196 86.4506 86.8118 86.4498 86.8044 86.4474C86.797 86.445 86.7902 86.4411 86.7845 86.4359C86.7787 86.4307 86.7741 86.4243 86.7709 86.4172C86.7677 86.4101 86.7661 86.4024 86.7661 86.3946C86.7661 86.3868 86.7677 86.3791 86.7709 86.372C86.7741 86.3649 86.7787 86.3585 86.7845 86.3533C86.7902 86.3481 86.797 86.3442 86.8044 86.3418C86.8118 86.3394 86.8196 86.3386 86.8273 86.3394C86.9574 86.3394 87.0876 86.3435 87.2138 86.3517C88.2331 86.3895 89.2493 86.4891 90.2568 86.6499C90.7816 86.7357 91.3064 86.8378 91.8271 86.9522C92.299 87.0584 92.7709 87.1769 93.2347 87.3076C93.8978 87.4955 94.5514 87.7106 95.1955 87.953Z" fill="white"/>
<path d="M106.928 88.4596C106.859 88.4473 106.79 88.4391 106.717 88.431C106.436 88.1982 106.151 87.9776 105.854 87.7611C105.484 87.4914 105.102 87.2382 104.711 87.0012C103.846 86.474 102.943 86.0125 102.01 85.6205C100.534 85.0034 99.0066 84.5194 97.4453 84.1743C95.6645 83.7826 93.8617 83.4988 92.0469 83.3246C90.2324 83.1367 88.4099 83.0224 86.5873 82.908C86.5101 82.9039 86.506 82.7895 86.5873 82.7936C86.8152 82.8099 87.043 82.8221 87.2748 82.8385C89.1177 82.9529 90.9606 83.0836 92.7913 83.292C94.6065 83.4873 96.4071 83.8012 98.1817 84.2315C99.6966 84.6064 101.175 85.1163 102.6 85.7553C103.419 86.1249 104.213 86.5494 104.976 87.0257C105.46 87.3321 105.928 87.6589 106.375 88.0062C106.562 88.1532 106.749 88.3003 106.928 88.4596Z" fill="white"/>
<path d="M106.163 88.3656C106.089 88.3536 106.015 88.3454 105.94 88.3411C105.854 88.2717 105.765 88.2063 105.675 88.1409C105.049 87.6908 104.395 87.2801 103.718 86.9113C103.104 86.5758 102.472 86.2717 101.827 86.0003C100.352 85.3814 98.8239 84.8974 97.2622 84.5542C95.4813 84.1624 93.6785 83.8787 91.8637 83.7045C90.0492 83.5166 88.2267 83.4022 86.4041 83.2878C86.3269 83.2797 86.3269 83.1694 86.4041 83.1735C86.636 83.1898 86.8638 83.202 87.0917 83.2184C88.9346 83.3327 90.7775 83.4635 92.6082 83.6718C94.4234 83.8672 96.224 84.181 97.9986 84.6114C99.5136 84.9856 100.992 85.4956 102.417 86.1352C102.954 86.3803 103.478 86.6458 103.991 86.9358C104.751 87.3549 105.477 87.833 106.163 88.3656Z" fill="white"/>
<path d="M112.323 89.3502C112.258 89.3379 112.192 89.3216 112.127 89.3093C112.054 89.2317 111.985 89.15 111.916 89.0683C111.566 88.6639 111.22 88.2553 110.878 87.8427C109.532 86.2332 108.254 84.5747 107.05 82.8835C106.017 81.4373 105.036 79.9626 104.109 78.4593C103.665 77.7485 103.238 77.0295 102.819 76.3023C102.494 75.7386 102.177 75.1735 101.867 74.607C101.778 74.4436 101.692 74.2802 101.607 74.1168C101.408 73.7328 101.208 73.3447 100.997 72.9648C100.767 72.4994 100.429 72.0959 100.012 71.7883C99.8038 71.6482 99.5626 71.5651 99.3125 71.5473C98.9597 71.5486 98.6129 71.6384 98.3035 71.8087C96.0275 72.873 93.8805 74.1957 91.9043 75.7508C89.9742 77.2582 88.229 78.9902 86.7051 80.9103C86.6564 80.9675 86.5505 80.9144 86.5953 80.8531C86.7783 80.6244 86.9654 80.3956 87.1526 80.1709C88.6172 78.4313 90.2664 76.8574 92.0711 75.4771C92.0751 75.473 92.0833 75.469 92.0873 75.4649C92.246 75.3382 92.4047 75.2157 92.5674 75.0972C93.5749 74.3522 94.6235 73.6648 95.7081 73.0383C96.2613 72.7156 96.8268 72.4092 97.4045 72.1192C97.5468 72.0457 97.6933 71.9721 97.8397 71.9027C97.9862 71.8292 98.1327 71.7597 98.2791 71.6902C98.5691 71.5418 98.8861 71.4542 99.2108 71.4329C100.342 71.4166 100.923 72.5604 101.326 73.3324C101.452 73.5735 101.583 73.8145 101.709 74.0555C102.197 74.9665 102.705 75.8734 103.234 76.768C103.556 77.3236 103.889 77.8751 104.227 78.4225C104.711 79.2028 105.207 79.9748 105.724 80.7429C105.724 80.7434 105.724 80.7439 105.724 80.7444C105.724 80.7449 105.725 80.7454 105.725 80.7458C105.725 80.7461 105.726 80.7464 105.726 80.7467C105.727 80.7469 105.727 80.747 105.728 80.747H105.728C106.326 81.6539 106.949 82.5444 107.591 83.4309C108.694 84.9464 109.849 86.428 111.057 87.8755C111.472 88.3738 111.894 88.8654 112.323 89.3502Z" fill="white"/>
<path d="M97.8084 71.3083L97.6959 71.3577C97.4381 70.9207 97.0768 70.5543 96.6441 70.2912C96.2113 70.0281 95.7206 69.8765 95.2154 69.8498C93.5498 69.731 92.0868 70.8455 91.9538 72.3342C91.8998 72.9471 92.0765 73.5581 92.449 74.0467L92.3446 74.1087C91.9566 73.5999 91.7725 72.9636 91.8288 72.3252C91.9672 70.775 93.4909 69.6143 95.2254 69.738C95.7514 69.7659 96.2625 69.9238 96.7131 70.1977C97.1638 70.4717 97.54 70.8532 97.8084 71.3083Z" fill="#FF6582"/>
<path d="M89.5785 74.3202C89.1414 74.1293 88.6653 74.0456 88.1896 74.076C87.7139 74.1064 87.2523 74.2501 86.8428 74.4951C88.3377 74.7254 89.8195 75.0346 91.2821 75.4212C90.6765 75.104 90.2028 74.607 89.5785 74.3202Z" fill="white"/>
<path d="M86.8345 74.4937L86.6699 74.6132C86.7256 74.5714 86.7835 74.5321 86.8429 74.495L86.8345 74.4937Z" fill="white"/>
<path d="M91.7914 75.1873C91.7258 75.1219 91.6606 75.0566 91.5946 74.9912C91.0881 74.4378 90.4784 73.9898 89.7999 73.6725C89.4544 73.5264 89.0838 73.4496 88.709 73.4465C88.3218 73.4556 87.9388 73.5302 87.5764 73.6673C87.4058 73.7281 87.2391 73.7973 87.0748 73.8709C86.8871 73.9553 86.7028 74.0453 86.5193 74.1361C86.1749 74.3064 85.835 74.4843 85.4995 74.6696C84.832 75.0383 84.1854 75.4352 83.5598 75.8602C83.2354 76.0806 82.9178 76.3082 82.6068 76.543C82.3176 76.7612 82.0342 76.9852 81.7567 77.2151C81.6973 77.264 81.6087 77.1848 81.6681 77.1359C81.7412 77.075 81.8152 77.0145 81.8892 76.9547C82.0982 76.7859 82.3105 76.6203 82.5261 76.4579C82.9194 76.1612 83.3229 75.8761 83.7365 75.6024C84.3798 75.1765 85.0452 74.7795 85.7327 74.4114C86.0763 74.2276 86.4246 74.0515 86.7776 73.8832C86.8842 73.8324 86.9921 73.7827 87.1011 73.7356C87.3503 73.6234 87.6073 73.5299 87.8702 73.4558C88.2472 73.3473 88.6416 73.3127 89.0317 73.3538C89.4052 73.4017 89.7677 73.5138 90.1033 73.6852C90.7685 74.0595 91.3686 74.54 91.8801 75.1078C91.9336 75.1615 91.8453 75.2411 91.7914 75.1873Z" fill="white"/>
<path d="M31.0031 59.925C40.1731 56.9871 50.4036 57.7649 59.091 61.9037C61.5697 63.0785 63.9107 64.5264 66.0708 66.2206C66.6819 66.7022 67.5514 65.8408 66.9338 65.354C58.9546 59.1394 48.9289 56.1872 38.8711 57.0905C36.0885 57.3405 33.3414 57.8947 30.6786 58.7432C29.9332 58.982 30.2518 60.1657 31.0031 59.925L31.0031 59.925Z" fill="#3F3D56"/>
<path d="M31.0031 68.0951C40.1731 65.1573 50.4036 65.9351 59.091 70.0739C61.5697 71.2487 63.9107 72.6965 66.0708 74.3908C66.6819 74.8723 67.5514 74.0109 66.9338 73.5242C58.9546 67.3096 48.9289 64.3573 38.8711 65.2606C36.0885 65.5107 33.3414 66.0649 30.6786 66.9134C29.9332 67.1522 30.2518 68.3358 31.0031 68.0951L31.0031 68.0951Z" fill="#3F3D56"/>
<path d="M31.0031 76.2653C40.1731 73.3275 50.4036 74.1052 59.091 78.2441C61.5697 79.4189 63.9107 80.8667 66.0708 82.5609C66.6819 83.0425 67.5514 82.1811 66.9338 81.6943C58.9546 75.4797 48.9289 72.5275 38.8711 73.4308C36.0885 73.6808 33.3414 74.235 30.6786 75.0836C29.9332 75.3224 30.2518 76.506 31.0031 76.2653L31.0031 76.2653Z" fill="#3F3D56"/>
<path d="M31.0031 84.4356C40.1731 81.4978 50.4036 82.2755 59.091 86.4144C61.5697 87.5891 63.9107 89.037 66.0708 90.7312C66.6819 91.2128 67.5514 90.3514 66.9338 89.8646C58.9546 83.65 48.9289 80.6978 38.8711 81.6011C36.0885 81.8511 33.3414 82.4053 30.6786 83.2538C29.9332 83.4926 30.2518 84.6763 31.0031 84.4356L31.0031 84.4356Z" fill="#3F3D56"/>
<path d="M31.0031 92.6058C40.1731 89.6679 50.4036 90.4457 59.091 94.5845C61.5697 95.7593 63.9107 97.2071 66.0708 98.9014C66.6819 99.383 67.5514 98.5215 66.9338 98.0348C58.9546 91.8202 48.9289 88.868 38.8711 89.7713C36.0885 90.0213 33.3414 90.5755 30.6786 91.424C29.9332 91.6628 30.2518 92.8465 31.0031 92.6058H31.0031Z" fill="#3F3D56"/>
<path d="M64.0418 41.917V61.5089C64.0418 61.8982 63.3639 62.2241 62.4506 62.3135C62.4428 62.3131 62.435 62.3141 62.4276 62.3164C62.2754 62.328 62.1145 62.3366 61.9508 62.3366C61.4473 62.3459 60.9462 62.2638 60.4716 62.0944C60.4286 62.0771 60.3855 62.0569 60.3424 62.0396C60.3022 62.0165 60.2591 61.9963 60.2189 61.9732C59.992 61.8377 59.8599 61.679 59.8599 61.5089V40.2269C61.2975 40.6746 62.6961 41.2398 64.0418 41.917Z" fill="url(#paint5_linear_4180_23533)"/>
<path d="M72.807 46.4611H72.2095V116.325H72.807V46.4611Z" fill="#E6E6E6"/>
<path d="M137.782 94.2875C138.206 94.2486 138.616 94.1169 138.983 93.9016C139.351 93.6863 139.667 93.3928 139.909 93.0416C140.152 92.6905 140.314 92.2902 140.386 91.8691C140.457 91.448 140.436 91.0162 140.324 90.6042L152.725 84.7911L160.191 72.6636L154.323 70.2844L149.286 80.0571L136.538 88.5875C135.861 88.8232 135.294 89.3001 134.944 89.9276C134.594 90.5552 134.485 91.2899 134.639 91.9925C134.792 92.6951 135.197 93.3168 135.776 93.7398C136.356 94.1627 137.069 94.3576 137.782 94.2875V94.2875Z" fill="#FFB6B6"/>
<path d="M164.797 61.0458C164.797 61.0458 166.258 61.5248 164.654 64.3715C163.37 66.6505 157.114 79.7779 154.56 82.3554C154.829 82.7876 154.947 83.2974 154.895 83.8043C154.844 84.3112 154.626 84.7865 154.275 85.1553L148.381 80.4582C148.268 78.7499 149.394 78.5804 150.061 78.6381L151.417 73.8119L156.147 61.9066L163.746 60.6807L164.797 61.0458Z" fill="url(#paint6_linear_4180_23533)"/>
</g>
<defs>
<linearGradient id="paint0_linear_4180_23533" x1="151.22" y1="83.535" x2="151.22" y2="164.71" gradientUnits="userSpaceOnUse">
<stop stop-color="#2F2E41"/>
<stop offset="1" stop-color="#75ecac"/>
</linearGradient>
<linearGradient id="paint1_linear_4180_23533" x1="159.406" y1="39.3197" x2="163.92" y2="32.2588" gradientUnits="userSpaceOnUse">
<stop stop-color="#2F2E41"/>
<stop offset="1" stop-color="#2F2E41"/>
</linearGradient>
<linearGradient id="paint2_linear_4180_23533" x1="140.576" y1="37.2146" x2="171.956" y2="38.7534" gradientUnits="userSpaceOnUse">
<stop stop-color="#2F2E41"/>
<stop offset="1" stop-color="#75ecac"/>
</linearGradient>
<linearGradient id="paint3_linear_4180_23533" x1="153.64" y1="40.6068" x2="150.409" y2="51.5402" gradientUnits="userSpaceOnUse">
<stop stop-color="#75ecac"/>
<stop offset="1" stop-color="#75ecac"/>
</linearGradient>
<linearGradient id="paint4_linear_4180_23533" x1="150.903" y1="39.2886" x2="162.668" y2="47.2787" gradientUnits="userSpaceOnUse">
<stop stop-color="#75ecac"/>
<stop offset="1" stop-color="#75ecac"/>
</linearGradient>
<linearGradient id="paint5_linear_4180_23533" x1="59.8593" y1="43.048" x2="66.5479" y2="43.8266" gradientUnits="userSpaceOnUse">
<stop stop-color="#75ecac"/>
<stop offset="1" stop-color="#75ecac"/>
</linearGradient>
<linearGradient id="paint6_linear_4180_23533" x1="146.25" y1="48.1311" x2="169.357" y2="49.2907" gradientUnits="userSpaceOnUse">
<stop stop-color="#75ecac"/>
<stop offset="1" stop-color="#75ecac"/>
</linearGradient>
<clipPath id="clip0_4180_23533">
<rect width="192.2" height="147.56" fill="white" transform="translate(0.52002 32.24)"/>
</clipPath>
</defs>
</svg>
