<svg width="190" height="186" viewBox="0 0 190 186" fill="none" xmlns="http://www.w3.org/2000/svg">
<path d="M187.907 104.148C187.907 158.84 169.307 178.204 90.8638 178.204C60.942 178.204 1.90723 170.454 1.90723 126.107C1.90723 71.4149 79.1377 7.27295 120.785 7.27295C172.148 7.27295 187.907 49.4565 187.907 104.148Z" fill="#F6F6F9"/>
<g clip-path="url(#clip0_4180_23538)">
<path d="M121.675 144.471V176.971H40.2506C30.9734 176.971 23.4253 169.681 23.4253 160.721C23.4253 151.761 30.9733 144.471 40.2506 144.471H121.675Z" fill="#F2F2F2"/>
<path d="M123.675 176.722C123.675 177.053 123.543 177.371 123.309 177.605C123.075 177.84 122.757 177.971 122.425 177.972H38.8003C34.2585 177.972 29.9027 176.167 26.6911 172.956C23.4795 169.744 21.6753 165.388 21.6753 160.847C21.6753 156.305 23.4795 151.949 26.6911 148.737C29.9027 145.526 34.2585 143.722 38.8003 143.722H122.425C122.757 143.722 123.075 143.853 123.309 144.088C123.544 144.322 123.675 144.64 123.675 144.972C123.675 145.303 123.544 145.621 123.309 145.855C123.075 146.09 122.757 146.222 122.425 146.222H38.8003C34.9215 146.222 31.2016 147.762 28.4589 150.505C25.7161 153.248 24.1753 156.968 24.1753 160.847C24.1753 164.725 25.7161 168.445 28.4589 171.188C31.2016 173.931 34.9215 175.472 38.8003 175.472H122.425C122.757 175.472 123.075 175.603 123.309 175.838C123.543 176.072 123.675 176.39 123.675 176.722Z" fill="url(#paint0_linear_4180_23538)"/>
<path d="M121.675 151.972H34.1753C34.109 151.972 34.0454 151.945 33.9985 151.898C33.9516 151.851 33.9253 151.788 33.9253 151.722C33.9253 151.655 33.9516 151.592 33.9985 151.545C34.0454 151.498 34.109 151.472 34.1753 151.472H121.675C121.742 151.472 121.805 151.498 121.852 151.545C121.899 151.592 121.925 151.655 121.925 151.722C121.925 151.788 121.899 151.851 121.852 151.898C121.805 151.945 121.742 151.972 121.675 151.972Z" fill="#CCCCCC"/>
<path d="M121.675 157.971H34.1753C34.109 157.971 34.0454 157.945 33.9985 157.898C33.9516 157.851 33.9253 157.788 33.9253 157.721C33.9253 157.655 33.9516 157.592 33.9985 157.545C34.0454 157.498 34.109 157.471 34.1753 157.471H121.675C121.742 157.471 121.805 157.498 121.852 157.545C121.899 157.592 121.925 157.655 121.925 157.721C121.925 157.788 121.899 157.851 121.852 157.898C121.805 157.945 121.742 157.971 121.675 157.971Z" fill="#CCCCCC"/>
<path d="M121.675 163.971H34.1753C34.109 163.971 34.0454 163.945 33.9985 163.898C33.9516 163.851 33.9253 163.788 33.9253 163.721C33.9253 163.655 33.9516 163.592 33.9985 163.545C34.0454 163.498 34.109 163.471 34.1753 163.471H121.675C121.742 163.471 121.805 163.498 121.852 163.545C121.899 163.592 121.925 163.655 121.925 163.721C121.925 163.788 121.899 163.851 121.852 163.898C121.805 163.945 121.742 163.971 121.675 163.971Z" fill="#CCCCCC"/>
<path d="M121.675 169.972H34.1753C34.109 169.972 34.0454 169.945 33.9985 169.898C33.9516 169.851 33.9253 169.788 33.9253 169.722C33.9253 169.655 33.9516 169.592 33.9985 169.545C34.0454 169.498 34.109 169.472 34.1753 169.472H121.675C121.742 169.472 121.805 169.498 121.852 169.545C121.899 169.592 121.925 169.655 121.925 169.722C121.925 169.788 121.899 169.851 121.852 169.898C121.805 169.945 121.742 169.972 121.675 169.972Z" fill="#CCCCCC"/>
<path d="M184.605 150.589L164.214 175.896L100.81 124.809C93.586 118.988 92.2824 108.576 97.9041 101.599C103.526 94.6217 113.977 93.681 121.201 99.5017L184.605 150.589Z" fill="#F2F2F2"/>
<path d="M165.928 176.956C165.72 177.215 165.418 177.379 165.088 177.415C164.759 177.45 164.429 177.353 164.17 177.146L99.0533 124.677C95.5167 121.828 93.2569 117.69 92.7711 113.174C92.2854 108.658 93.6134 104.135 96.463 100.598C99.3127 97.0614 103.451 94.8016 107.966 94.3158C112.482 93.83 117.006 95.1581 120.543 98.0077L185.66 150.476C185.788 150.579 185.894 150.706 185.973 150.85C186.052 150.994 186.101 151.152 186.119 151.316C186.136 151.479 186.122 151.644 186.075 151.801C186.029 151.959 185.952 152.106 185.849 152.234C185.746 152.362 185.619 152.468 185.475 152.547C185.331 152.625 185.173 152.675 185.009 152.692C184.846 152.71 184.681 152.695 184.523 152.649C184.366 152.602 184.219 152.526 184.091 152.422L118.974 99.9544C117.479 98.7485 115.76 97.849 113.917 97.3074C112.074 96.7657 110.142 96.5925 108.232 96.7976C106.322 97.0027 104.471 97.5821 102.785 98.5027C101.099 99.4233 99.6106 100.667 98.4052 102.163C97.1999 103.659 96.3011 105.378 95.7602 107.221C95.2193 109.064 95.0468 110.996 95.2526 112.906C95.4585 114.816 96.0386 116.667 96.9599 118.353C97.8812 120.038 99.1255 121.526 100.622 122.731L165.739 175.199C165.997 175.407 166.162 175.709 166.197 176.039C166.233 176.368 166.136 176.698 165.928 176.956Z" fill="#DDDDE5"/>
<path d="M179.899 156.429L111.765 101.53C111.739 101.509 111.718 101.484 111.702 101.455C111.686 101.426 111.676 101.395 111.673 101.362C111.669 101.329 111.672 101.296 111.682 101.265C111.691 101.233 111.706 101.204 111.727 101.178C111.747 101.153 111.773 101.132 111.802 101.116C111.83 101.1 111.862 101.09 111.895 101.087C111.927 101.083 111.96 101.086 111.992 101.095C112.023 101.105 112.053 101.12 112.078 101.141L180.213 156.04C180.238 156.061 180.26 156.086 180.275 156.115C180.291 156.144 180.301 156.175 180.305 156.208C180.308 156.241 180.305 156.274 180.296 156.305C180.287 156.337 180.271 156.366 180.251 156.392C180.23 156.417 180.205 156.439 180.176 156.454C180.147 156.47 180.115 156.48 180.083 156.483C180.05 156.487 180.017 156.484 179.986 156.475C179.954 156.465 179.925 156.45 179.899 156.429V156.429Z" fill="#CCCCCC"/>
<path d="M176.135 161.101L108 106.202C107.949 106.16 107.916 106.1 107.909 106.034C107.902 105.968 107.921 105.902 107.963 105.851C108.004 105.799 108.064 105.766 108.13 105.759C108.196 105.752 108.262 105.771 108.314 105.813L176.448 160.712C176.474 160.733 176.495 160.758 176.511 160.787C176.527 160.816 176.537 160.847 176.54 160.88C176.544 160.913 176.541 160.946 176.532 160.977C176.522 161.009 176.507 161.038 176.486 161.064C176.466 161.089 176.44 161.111 176.412 161.126C176.383 161.142 176.351 161.152 176.318 161.155C176.286 161.159 176.253 161.156 176.221 161.147C176.19 161.137 176.16 161.122 176.135 161.101Z" fill="#CCCCCC"/>
<path d="M172.37 165.773L104.236 110.874C104.184 110.833 104.151 110.772 104.144 110.706C104.137 110.64 104.156 110.574 104.198 110.523C104.24 110.471 104.3 110.438 104.366 110.431C104.432 110.424 104.498 110.443 104.549 110.485L172.684 165.384C172.71 165.405 172.731 165.43 172.747 165.459C172.762 165.488 172.772 165.519 172.776 165.552C172.779 165.585 172.776 165.618 172.767 165.649C172.758 165.681 172.742 165.71 172.722 165.736C172.701 165.761 172.676 165.782 172.647 165.798C172.618 165.814 172.587 165.824 172.554 165.827C172.521 165.831 172.488 165.828 172.457 165.819C172.425 165.809 172.396 165.794 172.37 165.773V165.773Z" fill="#CCCCCC"/>
<path d="M168.606 170.446L100.471 115.546C100.446 115.526 100.424 115.5 100.409 115.471C100.393 115.443 100.383 115.411 100.379 115.378C100.376 115.346 100.379 115.313 100.388 115.281C100.397 115.25 100.413 115.22 100.433 115.195C100.454 115.169 100.479 115.148 100.508 115.132C100.537 115.116 100.569 115.107 100.601 115.103C100.634 115.099 100.667 115.102 100.698 115.112C100.73 115.121 100.759 115.136 100.785 115.157L168.919 170.056C168.945 170.077 168.966 170.102 168.982 170.131C168.998 170.16 169.008 170.192 169.011 170.224C169.015 170.257 169.012 170.29 169.003 170.321C168.993 170.353 168.978 170.382 168.957 170.408C168.937 170.434 168.911 170.455 168.882 170.471C168.854 170.486 168.822 170.496 168.789 170.5C168.757 170.503 168.724 170.5 168.692 170.491C168.661 170.482 168.631 170.466 168.606 170.446Z" fill="#CCCCCC"/>
<path d="M188.897 178.221H3.39697C3.33067 178.221 3.26708 178.195 3.2202 178.148C3.17331 178.101 3.14697 178.038 3.14697 177.971C3.14697 177.905 3.17331 177.842 3.2202 177.795C3.26708 177.748 3.33067 177.721 3.39697 177.721H188.897C188.963 177.721 189.027 177.748 189.074 177.795C189.121 177.842 189.147 177.905 189.147 177.971C189.147 178.038 189.121 178.101 189.074 178.148C189.027 178.195 188.963 178.221 188.897 178.221Z" fill="#CCCCCC"/>
<path d="M87.6674 141.056L84.8094 141.055L83.4502 130.031L87.6684 130.032L87.6674 141.056Z" fill="#FFB8B8"/>
<path d="M82.7674 140.239H88.2793V143.709H79.2969C79.2969 143.253 79.3866 142.802 79.561 142.381C79.7355 141.96 79.9911 141.577 80.3133 141.255C80.6356 140.933 81.0182 140.677 81.4393 140.503C81.8603 140.328 82.3116 140.239 82.7674 140.239Z" fill="#2F2E41"/>
<path d="M58.4682 141.056L55.6102 141.055L54.251 130.031L58.4692 130.032L58.4682 141.056Z" fill="#FFB8B8"/>
<path d="M53.5691 140.239H59.0811V143.709H50.0986C50.0986 143.253 50.1884 142.802 50.3628 142.381C50.5372 141.96 50.7928 141.577 51.1151 141.255C51.4374 140.933 51.82 140.677 52.241 140.503C52.6621 140.328 53.1134 140.239 53.5691 140.239Z" fill="#2F2E41"/>
<path d="M68.0146 59.2833V58.0333C68.0146 55.895 68.8641 53.8443 70.3761 52.3323C71.8881 50.8203 73.9388 49.9708 76.0771 49.9708H76.0772C78.2155 49.9708 80.2662 50.8203 81.7782 52.3323C83.2902 53.8443 84.1397 55.895 84.1397 58.0333V59.2833C84.1397 60.8249 83.5273 62.3033 82.4372 63.3934C81.3472 64.4835 79.8687 65.0958 78.3272 65.0958H73.8272C73.0639 65.0958 72.308 64.9455 71.6028 64.6534C70.8976 64.3613 70.2568 63.9331 69.7171 63.3934C69.1774 62.8537 68.7492 62.2129 68.4571 61.5077C68.165 60.8025 68.0146 60.0466 68.0146 59.2833Z" fill="#2F2E41"/>
<path d="M76.0773 65.5259C79.4684 65.5259 82.2175 62.7768 82.2175 59.3856C82.2175 55.9944 79.4684 53.2454 76.0773 53.2454C72.6861 53.2454 69.937 55.9944 69.937 59.3856C69.937 62.7768 72.6861 65.5259 76.0773 65.5259Z" fill="#FFB8B8"/>
<path d="M42.6781 80.4889C42.9273 80.2536 43.225 80.0758 43.5504 79.9681C43.8757 79.8603 44.2207 79.8251 44.5611 79.8651C44.9014 79.9051 45.2289 80.0192 45.5204 80.1995C45.8119 80.3797 46.0603 80.6216 46.2482 80.9083L51.5118 79.9126L52.8971 82.9637L45.444 84.2654C44.9416 84.5491 44.3525 84.6386 43.7885 84.517C43.2244 84.3955 42.7246 84.0712 42.3837 83.6057C42.0427 83.1402 41.8844 82.5658 41.9387 81.9913C41.9929 81.4169 42.256 80.8823 42.6781 80.4889V80.4889Z" fill="#FFB8B8"/>
<path d="M84.8605 137.927C84.6411 137.927 84.4265 137.863 84.2428 137.744C84.0591 137.624 83.9143 137.453 83.8261 137.252L70.7236 104.877C70.693 104.806 70.6416 104.747 70.5764 104.707C70.5112 104.667 70.4352 104.648 70.3587 104.652C70.2823 104.656 70.2089 104.684 70.1486 104.731C70.0883 104.778 70.0439 104.843 70.0214 104.916L59.3318 136.435C59.2867 136.581 59.2121 136.717 59.1125 136.834C59.0129 136.951 58.8905 137.046 58.7527 137.114C58.615 137.181 58.4649 137.22 58.3116 137.228C58.1584 137.235 58.0052 137.211 57.8615 137.157L54.2769 135.813C54.0823 135.741 53.9116 135.616 53.7837 135.453C53.6559 135.289 53.5759 135.093 53.5526 134.887C51.94 120.839 66.0026 85.3796 66.1449 85.0232L66.1843 84.9244L79.0035 87.7601L79.0302 87.7892C84.1446 93.3686 88.3486 128.56 89.1394 135.558C89.1689 135.81 89.1113 136.066 88.9763 136.281C88.8413 136.497 88.6368 136.66 88.3966 136.744L85.2325 137.863C85.1131 137.906 84.9872 137.927 84.8605 137.927Z" fill="url(#paint1_linear_4180_23538)"/>
<path d="M72.6599 88.7317C72.8289 88.1254 73.2304 87.6102 73.7771 87.2983C74.3238 86.9863 74.9715 86.9027 75.5795 87.0656C75.7036 87.1003 75.8247 87.1452 75.9415 87.1997L79.9381 83.5625L82.7176 85.4351L77.0022 90.4928C76.7441 90.9581 76.3378 91.3238 75.848 91.5315C75.3581 91.7393 74.8128 91.7773 74.2989 91.6394C73.9995 91.5575 73.7194 91.417 73.4746 91.2262C73.2298 91.0353 73.0254 90.7978 72.8729 90.5274C72.7205 90.257 72.6232 89.9591 72.5867 89.6509C72.5501 89.3427 72.575 89.0302 72.6599 88.7317Z" fill="#FFB8B8"/>
<path fill-rule="evenodd" clip-rule="evenodd" d="M73.8159 88.9015C70.71 88.9015 67.2473 88.2823 66.1815 85.7264L66.1569 85.6676L66.1901 85.6132C67.0314 84.2328 68.1433 81.8781 67.5457 81.4361C66.8604 80.9294 66.3805 80.2325 66.109 79.3532L64.481 80.5115C63.9287 80.9053 63.3015 81.1815 62.6381 81.3228L48.9307 84.261C48.8114 84.2866 48.6882 84.2869 48.5688 84.262C48.4494 84.2371 48.3366 84.1876 48.2375 84.1165C48.1384 84.0455 48.0552 83.9545 47.9933 83.8494C47.9314 83.7444 47.8922 83.6275 47.8781 83.5064L47.5604 80.7698C47.5373 80.5683 47.5848 80.365 47.6948 80.1946C47.8047 80.0243 47.9703 79.8972 48.1634 79.8352L62.728 75.1844L67.4458 72.0764C68.7164 70.1183 70.6699 68.5799 73.0393 67.8091H73.0393C74.2092 67.4347 75.3998 67.1282 76.605 66.891C77.4837 66.7137 78.3908 66.7332 79.261 66.9481C80.1312 67.1631 80.9431 67.568 81.6382 68.134C82.0128 68.4372 82.3493 68.7826 82.6413 69.1623C83.257 69.2263 83.8467 69.4622 84.3404 69.8487L84.3663 69.8759L88.6268 75.9765C89.0875 76.3378 89.4584 76.8006 89.7107 77.3289C89.963 77.8572 90.0897 78.4367 90.081 79.022C90.0723 79.6074 89.9283 80.1829 89.6605 80.7034C89.3926 81.224 89.008 81.6756 88.5367 82.0229L79.9753 88.5576C79.7814 88.7008 79.5467 88.7782 79.3057 88.7782C79.0463 88.7783 78.795 88.6886 78.5943 88.5244L78.5586 88.4953C76.9909 88.7538 75.4052 88.8896 73.8159 88.9015ZM83.0768 80.8468L83.6559 80.4027C83.7342 80.3423 83.7856 80.2534 83.7989 80.1554C83.8121 80.0574 83.7862 79.958 83.7267 79.879L83.3813 79.4223C83.2933 79.8968 83.1923 80.3725 83.0768 80.8468Z" fill="url(#paint2_linear_4180_23538)"/>
<path d="M70.6382 57.6582V54.6117L76.0771 52.2367L81.2632 54.6117V57.6582C81.2632 57.7908 81.2105 57.918 81.1167 58.0118C81.023 58.1056 80.8958 58.1582 80.7632 58.1582H71.1382C71.0056 58.1582 70.8784 58.1056 70.7846 58.0118C70.6909 57.918 70.6382 57.7908 70.6382 57.6582Z" fill="#2F2E41"/>
<path d="M75.8276 50.3749C75.0279 47.8153 76.7074 44.8818 79.1903 43.8687C81.6732 42.8555 84.6437 43.5637 86.7387 45.2376C88.8338 46.9116 90.1337 49.4187 90.8224 52.0104C91.5111 54.6021 91.6419 57.3046 91.769 59.9833C94.8196 60.5436 96.8947 64.1618 95.838 67.0779C94.7812 69.9939 90.8698 71.4426 88.1685 69.9184C85.4672 68.3943 84.6848 64.2973 86.6344 61.885C87.5569 60.7436 88.0722 59.327 88.0987 57.8596C88.1252 56.3923 87.6614 54.958 86.7808 53.784C85.9001 52.61 84.6529 51.7634 83.2368 51.3782C81.8206 50.9931 80.3164 51.0914 78.9625 51.6576C77.459 52.2863 75.5726 50.6527 75.8276 50.3749Z" fill="#2F2E41"/>
<path opacity="0.2" d="M57.8881 53.4685L42.0449 60.2433C41.9214 60.2961 41.7885 60.3235 41.6541 60.3238C41.5198 60.3241 41.3868 60.2974 41.263 60.2452L25.205 53.4705C25.0034 53.3874 24.8351 53.2395 24.7269 53.0502C24.6561 53.173 24.6122 53.3094 24.5982 53.4504C24.5841 53.5915 24.6003 53.7339 24.6455 53.8682C24.6907 54.0025 24.764 54.1257 24.8605 54.2295C24.9569 54.3334 25.0744 54.4155 25.205 54.4705L41.263 61.2452C41.3868 61.2974 41.5198 61.3241 41.6541 61.3238C41.7885 61.3235 41.9214 61.2961 42.0449 61.2433L57.8881 54.4685C58.0181 54.413 58.1349 54.3307 58.2307 54.2268C58.3265 54.1229 58.3992 53.9999 58.4439 53.8658C58.4887 53.7318 58.5045 53.5898 58.4903 53.4492C58.4762 53.3086 58.4324 53.1726 58.3618 53.0502C58.2543 53.238 58.0878 53.3851 57.8881 53.4685Z" fill="black"/>
<path d="M34.118 63.7806C31.1726 63.7612 28.2639 63.1242 25.5801 61.9106C25.4203 61.8394 25.2847 61.7233 25.1898 61.5764C25.0948 61.4295 25.0447 61.2581 25.0454 61.0832V53.7409C25.0457 53.5003 25.1414 53.2697 25.3114 53.0996C25.4815 52.9296 25.7121 52.8339 25.9527 52.8336H42.2833C42.5239 52.8339 42.7545 52.9296 42.9246 53.0996C43.0946 53.2697 43.1903 53.5003 43.1906 53.7409V61.0832C43.1913 61.2581 43.1412 61.4295 43.0462 61.5764C42.9513 61.7233 42.8157 61.8394 42.6559 61.9106C39.972 63.1242 37.0634 63.7612 34.118 63.7806Z" fill="url(#paint3_linear_4180_23538)"/>
<path d="M34.1154 57.831C33.9944 57.8311 33.8745 57.807 33.7629 57.7601L20.8129 52.2964C20.6459 52.226 20.5038 52.1071 20.405 51.9552C20.3062 51.8033 20.2551 51.6252 20.2585 51.444C20.2618 51.2627 20.3193 51.0867 20.4236 50.9385C20.528 50.7902 20.6743 50.6767 20.8437 50.6124L33.7939 45.6995C34.0025 45.62 34.2331 45.6205 34.4413 45.7009L47.218 50.6137C47.3865 50.6785 47.5318 50.7921 47.6354 50.94C47.739 51.0879 47.7961 51.2633 47.7994 51.4438C47.8028 51.6243 47.7522 51.8017 47.6541 51.9533C47.5561 52.1049 47.415 52.2238 47.249 52.2948L34.4723 57.7583C34.3594 57.8064 34.2381 57.8311 34.1154 57.831Z" fill="url(#paint4_linear_4180_23538)"/>
<path d="M26.6591 61.195C26.7126 61.195 26.7639 61.1738 26.8017 61.136C26.8395 61.0981 26.8607 61.0469 26.8607 60.9934V54.2471L33.5102 51.8247C33.5637 51.8255 33.6152 51.8051 33.6536 51.7678C33.692 51.7306 33.714 51.6796 33.7148 51.6261C33.7156 51.5727 33.6951 51.5211 33.6579 51.4827C33.6206 51.4443 33.5697 51.4223 33.5162 51.4215L26.8668 53.8439C26.8132 53.8427 26.76 53.8523 26.7104 53.8723C26.6607 53.8922 26.6156 53.922 26.5778 53.9599C26.5396 53.9973 26.5092 54.042 26.4886 54.0913C26.4679 54.1407 26.4574 54.1937 26.4575 54.2471V60.9934C26.4575 61.0469 26.4788 61.0981 26.5166 61.136C26.5544 61.1738 26.6057 61.195 26.6591 61.195Z" fill="#3F3D56"/>
<path d="M26.5578 62.4092C27.2259 62.4092 27.7675 61.8676 27.7675 61.1995C27.7675 60.5315 27.2259 59.9899 26.5578 59.9899C25.8897 59.9899 25.3481 60.5315 25.3481 61.1995C25.3481 61.8676 25.8897 62.4092 26.5578 62.4092Z" fill="#3F3D56"/>
</g>
<defs>
<linearGradient id="paint0_linear_4180_23538" x1="72.6753" y1="143.722" x2="72.6753" y2="177.972" gradientUnits="userSpaceOnUse">
<stop stop-color="#75ecac"/>
<stop offset="1" stop-color="#75ecac"/>
</linearGradient>
<linearGradient id="paint1_linear_4180_23538" x1="71.2854" y1="84.9244" x2="71.2854" y2="137.927" gradientUnits="userSpaceOnUse">
<stop stop-color="#2F2E41"/>
<stop offset="1" stop-color="#605F74"/>
</linearGradient>
<linearGradient id="paint2_linear_4180_23538" x1="47.5488" y1="69.5947" x2="76.2888" y2="103.585" gradientUnits="userSpaceOnUse">
<stop stop-color="#59AA6F"/>
<stop offset="1" stop-color="#4C945F"/>
</linearGradient>
<linearGradient id="paint3_linear_4180_23538" x1="34.118" y1="52.8336" x2="34.118" y2="63.7806" gradientUnits="userSpaceOnUse">
<stop stop-color="#00d362"/>
<stop offset="1" stop-color="00d362"/>
</linearGradient>
<linearGradient id="paint4_linear_4180_23538" x1="34.0289" y1="45.6403" x2="34.0289" y2="57.831" gradientUnits="userSpaceOnUse">
<stop stop-color="00d362"/>
<stop offset="1" stop-color="#75ecac"/>
</linearGradient>
<clipPath id="clip0_4180_23538">
<rect width="186" height="134.821" fill="white" transform="translate(3.14697 43.4)"/>
</clipPath>
</defs>
</svg>
